<?xml version="1.0" standalone="no"?>
<!DOCTYPE svg PUBLIC "-//W3C//DTD SVG 20010904//EN"
 "http://www.w3.org/TR/2001/REC-SVG-20010904/DTD/svg10.dtd">
<svg version="1.0" xmlns="http://www.w3.org/2000/svg"
 width="256.000000pt" height="256.000000pt" viewBox="0 0 256.000000 256.000000"
 preserveAspectRatio="xMidYMid meet">
<metadata>
Created by potrace 1.16, written by Peter Selinger 2001-2019
</metadata>
<g transform="translate(0.000000,256.000000) scale(0.100000,-0.100000)"
fill="#000000" stroke="none">
<path d="M0 1280 l0 -1280 1280 0 1280 0 0 1280 0 1280 -1280 0 -1280 0 0
-1280z m747 986 c48 -58 91 -105 95 -105 4 -1 47 46 95 104 l88 105 131 0 132
0 7 -282 c3 -156 5 -411 3 -568 l-3 -285 -120 0 -120 0 -5 414 -5 415 -99
-117 c-84 -100 -101 -115 -114 -105 -8 7 -54 60 -101 117 l-86 105 -6 -379
c-3 -209 -7 -397 -8 -417 l-1 -38 -120 0 -120 0 0 563 c0 310 3 567 7 570 3 4
64 7 134 7 l127 0 89 -104z m1000 -85 c34 -101 64 -186 66 -188 3 -2 31 72 62
164 32 92 62 178 66 191 8 21 13 22 129 22 66 0 120 -2 120 -4 0 -4 -82 -204
-176 -428 l-45 -108 25 -67 c14 -38 50 -133 81 -213 72 -185 115 -302 115
-312 0 -4 -54 -8 -119 -8 l-119 0 -52 163 c-29 89 -59 184 -67 212 l-15 50
-19 -50 c-10 -27 -42 -123 -71 -212 l-51 -163 -119 0 c-97 0 -118 3 -118 15 0
8 18 59 39 112 22 54 56 141 76 193 20 52 52 134 71 181 19 48 34 89 34 93 0
7 -150 372 -196 477 -13 31 -24 59 -24 63 0 4 55 5 122 4 l122 -3 63 -184z
m-669 -1128 l-3 -88 -117 -3 -118 -3 0 -409 0 -410 -110 0 -110 0 0 410 0 410
-115 0 -115 0 0 90 0 90 345 0 346 0 -3 -87z m276 70 c2 -10 26 -145 53 -300
26 -156 50 -283 53 -283 3 0 27 125 53 278 27 152 51 287 54 300 5 21 10 22
97 22 l91 0 49 -282 c27 -156 52 -292 56 -302 6 -18 7 -18 13 5 3 13 27 149
53 302 l48 277 108 0 c80 0 108 -3 108 -12 0 -7 -47 -231 -103 -498 l-103
-485 -119 0 -119 0 -40 234 c-26 152 -43 227 -48 215 -7 -18 -78 -421 -78
-444 0 -6 -44 -10 -119 -10 l-119 0 -12 52 c-6 29 -51 246 -101 483 -49 237
-92 438 -95 448 -5 15 4 17 105 17 96 0 110 -2 115 -17z"/>
</g>
</svg>
