<svg width="342" height="342" viewBox="0 0 342 342" fill="none" xmlns="http://www.w3.org/2000/svg">
<rect x="36" y="18" width="285" height="160" fill="#E1FF04"/>
<path d="M0 170.667V341.333H170.667H341.333V170.667V0H170.667H0V170.667ZM99.6 39.2C106 46.9333 111.733 53.2 112.267 53.2C112.8 53.3333 118.533 47.0666 124.933 39.3333L136.667 25.3333H154.133H171.733L172.667 62.9333C173.067 83.7333 173.333 117.733 173.067 138.667L172.667 176.667H156.667H140.667L140 121.467L139.333 66.1333L126.133 81.7333C114.933 95.0667 112.667 97.0667 110.933 95.7333C109.867 94.8 103.733 87.7333 97.4667 80.1333L86 66.1333L85.2 116.667C84.8 144.533 84.2667 169.6 84.1333 172.267L84 177.333H68H52V102.267C52 60.9333 52.4 26.6667 52.9333 26.2667C53.3333 25.7333 61.4667 25.3333 70.8 25.3333H87.7333L99.6 39.2ZM232.933 50.5333C237.467 64 241.467 75.3333 241.733 75.6C242.133 75.8667 245.867 66 250 53.7333C254.267 41.4667 258.267 30 258.8 28.2667C259.867 25.4667 260.533 25.3333 276 25.3333C284.8 25.3333 292 25.6 292 25.8667C292 26.4 281.067 53.0667 268.533 82.9333L262.533 97.3333L265.867 106.267C267.733 111.333 272.533 124 276.667 134.667C286.267 159.333 292 174.933 292 176.267C292 176.8 284.8 177.333 276.133 177.333H260.267L253.333 155.6C249.467 143.733 245.467 131.067 244.4 127.333L242.4 120.667L239.867 127.333C238.533 130.933 234.267 143.733 230.4 155.6L223.6 177.333H207.733C194.8 177.333 192 176.933 192 175.333C192 174.267 194.4 167.467 197.2 160.4C200.133 153.2 204.667 141.6 207.333 134.667C210 127.733 214.267 116.8 216.8 110.533C219.333 104.133 221.333 98.6667 221.333 98.1333C221.333 97.2 201.333 48.5333 195.2 34.5333C193.467 30.4 192 26.6667 192 26.1333C192 25.6 199.333 25.4667 208.267 25.6L224.533 26L232.933 50.5333ZM143.733 200.933L143.333 212.667L127.733 213.067L112 213.467V268V322.667H97.3333H82.6667V268V213.333H67.3333H52V201.333V189.333H98H144.133L143.733 200.933ZM180.533 191.6C180.8 192.933 184 210.933 187.6 231.6C191.067 252.4 194.267 269.333 194.667 269.333C195.067 269.333 198.267 252.667 201.733 232.267C205.333 212 208.533 194 208.933 192.267C209.6 189.467 210.267 189.333 221.867 189.333H234L240.533 226.933C244.133 247.733 247.467 265.867 248 267.2C248.8 269.6 248.933 269.6 249.733 266.533C250.133 264.8 253.333 246.667 256.8 226.267L263.2 189.333H277.6C288.267 189.333 292 189.733 292 190.933C292 191.867 285.733 221.733 278.267 257.333L264.533 322H248.667H232.8L227.467 290.8C224 270.533 221.733 260.533 221.067 262.133C220.133 264.533 210.667 318.267 210.667 321.333C210.667 322.133 204.8 322.667 194.8 322.667H178.933L177.333 315.733C176.533 311.867 170.533 282.933 163.867 251.333C157.333 219.733 151.6 192.933 151.2 191.6C150.533 189.6 151.733 189.333 165.2 189.333C178 189.333 179.867 189.6 180.533 191.6Z" fill="#0349F7"/>
</svg>
